<?xml version="1.0" standalone="no"?>
<!DOCTYPE svg PUBLIC "-//W3C//DTD SVG 20010904//EN"
 "http://www.w3.org/TR/2001/REC-SVG-20010904/DTD/svg10.dtd">
<svg version="1.0" xmlns="http://www.w3.org/2000/svg"
 width="500.000000pt" height="500.000000pt" viewBox="0 0 500.000000 500.000000"
 preserveAspectRatio="xMidYMid meet">

<g transform="translate(0.000000,500.000000) scale(0.100000,-0.100000)"
fill="#000000" stroke="none">
<path d="M3418 4854 c-26 -25 -64 -68 -85 -95 -21 -26 -44 -50 -52 -54 -7 -3
-39 18 -74 47 -58 50 -63 53 -117 53 -66 0 -78 -8 -213 -135 -92 -87 -249
-270 -301 -350 -16 -25 -40 -61 -53 -81 -13 -19 -23 -38 -23 -43 0 -4 -11 -31
-24 -59 -32 -68 -26 -90 40 -166 30 -34 54 -67 54 -72 0 -6 -24 -36 -53 -67
-80 -86 -167 -219 -167 -256 0 -8 -11 -38 -25 -68 -14 -29 -25 -62 -25 -73 0
-11 -12 -42 -25 -70 -14 -27 -25 -56 -25 -64 0 -12 -22 -59 -63 -136 -9 -16
-26 -48 -37 -70 -50 -101 -138 -235 -220 -338 -36 -45 -77 -98 -91 -117 -69
-93 -209 -216 -445 -390 -18 -14 -68 -52 -111 -85 -42 -33 -84 -64 -94 -70
-32 -18 -267 -229 -339 -304 -131 -136 -257 -278 -316 -356 -21 -27 -58 -77
-83 -110 -26 -33 -53 -70 -61 -82 -8 -12 -43 -62 -77 -112 -35 -51 -63 -95
-63 -100 0 -5 -7 -15 -16 -22 -9 -8 -25 -32 -36 -54 -10 -22 -32 -62 -48 -90
-51 -90 -100 -192 -100 -209 0 -9 -11 -28 -25 -42 -22 -22 -25 -34 -25 -93 0
-51 4 -70 14 -74 8 -3 23 -21 32 -39 40 -77 194 -224 274 -262 19 -9 46 -23
60 -30 53 -30 142 -58 212 -68 40 -5 93 -18 117 -29 56 -25 65 -24 109 6 20
14 43 25 50 25 22 0 121 100 152 155 24 41 30 65 31 111 0 33 4 79 8 104 24
135 53 250 71 285 11 21 20 46 20 55 0 9 11 31 25 50 14 19 25 39 25 44 0 6
13 29 28 51 96 141 186 235 357 374 55 45 107 87 115 94 8 7 37 28 63 47 26
19 88 67 136 105 48 39 107 84 130 100 24 17 54 39 67 50 13 11 42 34 65 50
116 86 302 248 414 360 179 180 466 507 650 740 111 141 185 225 199 225 20 0
194 -230 234 -310 7 -14 26 -47 42 -75 16 -27 36 -63 44 -80 9 -16 32 -55 51
-85 19 -30 43 -73 54 -95 10 -23 35 -56 56 -74 33 -29 44 -32 77 -28 40 5 135
39 178 63 14 7 39 20 57 29 18 8 51 29 75 45 24 17 54 38 68 48 36 24 187 152
240 203 25 24 77 82 116 129 62 75 91 115 154 210 27 41 78 153 85 186 3 18
15 40 26 50 16 14 19 31 19 96 0 59 -3 78 -14 78 -7 0 -30 14 -51 30 -21 17
-44 30 -51 30 -8 0 -35 11 -61 24 -27 14 -79 39 -118 57 -38 18 -81 41 -94 51
-13 10 -31 18 -39 18 -9 0 -33 11 -54 25 -21 14 -57 37 -80 52 -75 46 -133 86
-143 97 -13 14 -82 67 -115 87 -38 25 -110 97 -110 111 0 7 31 48 68 90 38 42
77 93 87 112 19 36 19 36 0 72 -22 42 -93 116 -245 255 -58 53 -123 113 -145
134 -22 20 -51 44 -65 53 -14 9 -53 38 -87 64 -34 27 -65 48 -68 48 -4 0 -21
11 -39 25 -22 17 -46 25 -73 25 -33 0 -46 -7 -85 -46z m296 -334 c154 -130
276 -244 276 -257 0 -5 -13 -30 -30 -56 -20 -33 -36 -47 -52 -47 -18 0 -101
62 -159 119 -8 9 -77 70 -153 135 -76 66 -142 128 -147 138 -12 23 0 47 41 82
42 35 57 28 224 -114z m-588 32 c21 -16 53 -42 69 -58 17 -16 46 -41 65 -55
19 -15 47 -37 61 -50 14 -13 59 -53 100 -89 41 -36 79 -70 84 -76 6 -6 71 -62
145 -125 74 -63 142 -121 150 -130 14 -16 283 -238 346 -286 84 -64 105 -80
135 -98 18 -11 45 -27 59 -36 75 -48 160 -93 353 -184 52 -25 77 -42 77 -54 0
-25 -30 -112 -50 -141 -9 -14 -20 -32 -25 -41 -128 -219 -456 -521 -635 -584
l-40 -14 -35 46 c-19 25 -35 49 -35 54 0 4 -21 43 -48 86 -26 43 -53 89 -60
103 -37 76 -190 292 -252 359 -13 13 -39 44 -58 70 -85 112 -374 405 -597 606
-194 176 -245 229 -245 257 0 25 35 82 120 194 57 74 250 274 265 274 7 0 30
-13 51 -28z m-231 -930 c116 -107 287 -282 368 -379 18 -21 18 -22 0 -50 -14
-23 -93 -121 -181 -228 -90 -108 -134 -162 -174 -212 -25 -32 -57 -69 -69 -83
-13 -13 -41 -45 -63 -70 -47 -55 -148 -168 -275 -308 -88 -97 -375 -346 -487
-423 -28 -20 -57 -41 -65 -47 -22 -19 -93 -73 -165 -127 -37 -27 -74 -57 -83
-65 -9 -8 -38 -31 -65 -50 -194 -141 -423 -355 -520 -485 -75 -101 -165 -261
-166 -295 0 -9 -9 -34 -20 -55 -11 -22 -25 -67 -30 -100 -5 -33 -14 -76 -20
-95 -6 -19 -15 -82 -21 -139 -9 -93 -13 -108 -40 -143 -17 -21 -41 -41 -53
-44 -31 -7 -220 33 -264 56 -20 11 -41 20 -47 20 -13 0 -77 44 -139 94 -50 41
-106 115 -106 139 0 7 25 63 56 123 84 164 101 194 170 297 21 33 50 76 64 97
40 60 64 93 80 111 8 9 26 34 40 54 41 60 246 304 325 387 65 68 179 173 254
234 13 10 40 34 60 52 20 18 62 52 95 75 32 23 87 65 122 92 35 28 79 61 99
75 309 215 601 566 788 947 21 43 49 99 63 126 13 26 24 54 24 62 0 9 11 37
25 63 14 26 25 55 25 65 0 10 11 40 25 67 14 27 25 57 25 67 0 42 150 223 185
223 12 0 77 -52 160 -128z"/>
</g>
</svg>
